<svg width="50" height="50" viewBox="0 0 50 50" fill="none" xmlns="http://www.w3.org/2000/svg">
<path fill-rule="evenodd" clip-rule="evenodd" d="M7.29167 21.4953C7.29167 11.9123 15.2998 4.16667 24.9863 4.16667C34.7002 4.16667 42.7083 11.9123 42.7083 21.4953C42.7083 26.3244 40.9521 30.8076 38.0615 34.6075C34.8725 38.799 30.942 42.451 26.5178 45.3176C25.5052 45.98 24.5914 46.03 23.4801 45.3176C19.0307 42.451 15.1002 38.799 11.9385 34.6075C9.0458 30.8076 7.29167 26.3244 7.29167 21.4953ZM19.1548 22.0349C19.1548 25.2452 21.7744 27.7702 24.9865 27.7702C28.2006 27.7702 30.8455 25.2452 30.8455 22.0349C30.8455 18.8496 28.2006 16.2018 24.9865 16.2018C21.7744 16.2018 19.1548 18.8496 19.1548 22.0349Z" fill="#4096FE"/>
</svg>
